<svg width="258.10625px" height="101.6px" xmlns="http://www.w3.org/2000/svg" viewBox="120.946875 24.200000000000003 258.10625 101.6" style="background: rgba(0, 0, 0, 0);" preserveAspectRatio="xMidYMid"><defs><linearGradient id="editing-outline-gradient" x1="-0.41354545764260087" x2="1.4135454576426008" y1="0.09326335692419985" y2="0.9067366430758002"><stop offset="0" stop-color="#ee4208"></stop><stop offset="1" stop-color="#4139ff"></stop></linearGradient><filter id="editing-outline" x="-100%" y="-100%" width="300%" height="300%"><feMorphology in="SourceGraphic" operator="dilate" radius="1" result="outline"></feMorphology><feComposite operator="out" in="outline" in2="SourceAlpha"></feComposite></filter></defs><g filter="url(#editing-outline)"><g transform="translate(162.82501739263535, 94.5)"><path d="M7.96-9.88L0.52-9.88L0.52-9.88Q0.31-10.50 0.31-11.78L0.31-11.78L0.31-11.78Q0.31-13.05 1.38-14.12L1.38-14.12L1.38-14.12Q2.44-15.18 4.11-15.18L4.11-15.18L8.94-15.18L9.98-20.75L9.98-20.75Q10.35-22.36 11.47-23.30L11.47-23.30L11.47-23.30Q12.58-24.23 13.99-24.23L13.99-24.23L13.99-24.23Q15.39-24.23 16.33-23.87L16.33-23.87L14.66-15.18L22.41-15.18L22.57-14.35L22.57-14.35Q22.67-13.99 22.67-13.62L22.67-13.62L22.67-13.62Q22.67-11.86 21.48-10.87L21.48-10.87L21.48-10.87Q20.28-9.88 18.30-9.88L18.30-9.88L13.62-9.88L12.38-3.48L12.38-3.48Q11.70-0.31 8.37-0.31L8.37-0.31L8.37-0.31Q7.18-0.31 6.08-0.68L6.08-0.68L7.96-9.88ZM26.78-32.24L26.78-32.24L26.78-32.24Q28.29-35.36 32.47-35.36L32.47-35.36L32.47-35.36Q36.66-35.36 38.61-32.94L38.61-32.94L38.61-32.94Q40.56-30.52 40.56-24.96L40.56-24.96L40.56-6.40L53.20-34.27L59.38-34.27L43.21 0L31.04 0L29.48-24.96L29.48-24.96Q29.33-27.72 28.57-29.59L28.57-29.59L28.57-29.59Q27.82-31.46 26.78-32.24ZM69.78-2.86L69.78-2.86L69.78-2.86Q68.17 1.04 63.02 1.04L63.02 1.04L63.02 1.04Q60.37 1.04 58.71-0.78L58.71-0.78L58.71-0.78Q57.30-2.39 57.30-4.00L57.30-4.00L57.30-4.00Q57.30-8.22 59.23-16.43L59.23-16.43L61.15-26.52L71.71-27.56L68.54-11.13L68.54-11.13Q67.65-7.28 67.65-5.93L67.65-5.93L67.65-5.93Q67.65-2.96 69.78-2.86ZM62.09-33.75L62.09-33.75L62.09-33.75Q62.09-35.78 63.78-36.87L63.78-36.87L63.78-36.87Q65.47-37.96 67.91-37.96L67.91-37.96L67.91-37.96Q70.36-37.96 71.84-36.87L71.84-36.87L71.84-36.87Q73.32-35.78 73.32-33.75L73.32-33.75L73.32-33.75Q73.32-31.72 71.68-30.68L71.68-30.68L71.68-30.68Q70.04-29.64 67.60-29.64L67.60-29.64L67.60-29.64Q65.16-29.64 63.62-30.68L63.62-30.68L63.62-30.68Q62.09-31.72 62.09-33.75ZM89.75-18.25L89.75-18.25L89.75-18.25Q90.48-20.18 90.48-21.84L90.48-21.84L90.48-21.84Q90.48-24.91 87.98-24.91L87.98-24.91L87.98-24.91Q86.68-24.91 85.62-23.74L85.62-23.74L85.62-23.74Q84.55-22.57 84.55-21.11L84.55-21.11L84.55-21.11Q84.55-20.07 85.38-19.24L85.38-19.24L85.38-19.24Q86.58-18.10 89.65-16.22L89.65-16.22L89.65-16.22Q92.72-14.35 93.89-12.82L93.89-12.82L93.89-12.82Q95.06-11.28 95.06-9.18L95.06-9.18L95.06-9.18Q95.06-7.07 94.04-5.15L94.04-5.15L94.04-5.15Q93.03-3.22 91.21-1.87L91.21-1.87L91.21-1.87Q87.31 1.04 81.07 1.04L81.07 1.04L81.07 1.04Q77.69 1.04 75.09-0.73L75.09-0.73L75.09-0.73Q72.49-2.44 72.49-4.47L72.49-4.47L72.49-4.47Q72.49-6.50 73.97-7.70L73.97-7.70L73.97-7.70Q75.45-8.89 77.64-8.89L77.64-8.89L77.64-8.89Q79.82-8.89 81.17-8.06L81.17-8.06L81.17-8.06Q80.50-6.34 80.50-5.20L80.50-5.20L80.50-5.20Q80.50-1.77 83.41-1.77L83.41-1.77L83.41-1.77Q84.66-1.77 85.49-2.55L85.49-2.55L85.49-2.55Q86.32-3.33 86.32-4.68L86.32-4.68L86.32-4.68Q86.32-7.33 81.85-10.14L81.85-10.14L81.85-10.14Q78.21-12.53 77.38-13.47L77.38-13.47L77.38-13.47Q75.97-15.13 75.97-17.21L75.97-17.21L75.97-17.21Q75.97-19.29 76.96-21.27L76.96-21.27L76.96-21.27Q77.95-23.24 79.77-24.65L79.77-24.65L79.77-24.65Q83.56-27.56 90.17-27.56L90.17-27.56L90.17-27.56Q93.55-27.56 95.55-26.21L95.55-26.21L95.55-26.21Q97.55-24.86 97.55-22.57L97.55-22.57L97.55-22.57Q97.55-20.28 96.17-18.98L96.17-18.98L96.17-18.98Q94.80-17.68 92.30-17.68L92.30-17.68L92.30-17.68Q90.58-17.68 89.75-18.25ZM100.31-5.20L100.31-5.20L100.31-5.20Q100.31-6.60 101.04-10.14L101.04-10.14L103.79-24.18L100.72-24.18L100.93-25.74L100.93-25.74Q107.17-27.61 113.20-32.19L113.20-32.19L115.70-32.19L114.45-26.52L118.51-26.52L118.04-24.18L114.04-24.18L111.38-10.14L111.38-10.14Q110.71-6.92 110.71-5.82L110.71-5.82L110.71-5.82Q110.71-3.33 112.89-2.81L112.89-2.81L112.89-2.81Q112.37-1.04 110.50 0L110.50 0L110.50 0Q108.63 1.04 105.98 1.04L105.98 1.04L105.98 1.04Q103.32 1.04 101.82-0.62L101.82-0.62L101.82-0.62Q100.31-2.29 100.31-5.20ZM120.30-1.56L120.30-1.56L120.30-1.56Q119.08-2.91 118.53-5.04L118.53-5.04L118.53-5.04Q117.99-7.18 117.99-10.66L117.99-10.66L117.99-10.66Q117.99-14.14 119.18-17.32L119.18-17.32L119.18-17.32Q120.38-20.49 122.56-22.78L122.56-22.78L122.56-22.78Q127.04-27.56 134.42-27.56L134.42-27.56L134.42-27.56Q137.07-27.56 139.00-26.68L139.00-26.68L147.89-27.56L144.04-7.28L144.04-7.28Q143.88-6.66 143.88-5.51L143.88-5.51L143.88-5.51Q143.88-4.37 144.59-3.64L144.59-3.64L144.59-3.64Q145.29-2.91 146.33-2.81L146.33-2.81L146.33-2.81Q145.81-1.04 143.91 0L143.91 0L143.91 0Q142.01 1.04 139.88 1.04L139.88 1.04L139.88 1.04Q137.75 1.04 136.32 0.23L136.32 0.23L136.32 0.23Q134.89-0.57 134.47-1.92L134.47-1.92L134.47-1.92Q133.64-0.62 131.87 0.21L131.87 0.21L131.87 0.21Q130.10 1.04 127.74 1.04L127.74 1.04L127.74 1.04Q125.37 1.04 123.45 0.42L123.45 0.42L123.45 0.42Q121.52-0.21 120.30-1.56ZM131.27-22.67L131.27-22.67L131.27-22.67Q130.68-21.74 130.16-20.15L130.16-20.15L130.16-20.15Q129.64-18.56 128.78-14.33L128.78-14.33L128.78-14.33Q127.92-10.09 127.92-7.07L127.92-7.07L127.92-7.07Q127.92-4.06 128.39-3.17L128.39-3.17L128.39-3.17Q128.86-2.29 129.69-2.29L129.69-2.29L129.69-2.29Q131.35-2.29 132.57-3.87L132.57-3.87L132.57-3.87Q133.80-5.46 134.26-8.27L134.26-8.27L137.02-23.50L137.02-23.50Q135.93-24.44 134.65-24.44L134.65-24.44L134.65-24.44Q133.38-24.44 132.63-24.02L132.63-24.02L132.63-24.02Q131.87-23.61 131.27-22.67ZM166.24-18.25L166.24-18.25L166.24-18.25Q166.97-20.18 166.97-21.84L166.97-21.84L166.97-21.84Q166.97-24.91 164.48-24.91L164.48-24.91L164.48-24.91Q163.18-24.91 162.11-23.74L162.11-23.74L162.11-23.74Q161.04-22.57 161.04-21.11L161.04-21.11L161.04-21.11Q161.04-20.07 161.88-19.24L161.88-19.24L161.88-19.24Q163.07-18.10 166.14-16.22L166.14-16.22L166.14-16.22Q169.21-14.35 170.38-12.82L170.38-12.82L170.38-12.82Q171.55-11.28 171.55-9.18L171.55-9.18L171.55-9.18Q171.55-7.07 170.53-5.15L170.53-5.15L170.53-5.15Q169.52-3.22 167.70-1.87L167.70-1.87L167.70-1.87Q163.80 1.04 157.56 1.04L157.56 1.04L157.56 1.04Q154.18 1.04 151.58-0.73L151.58-0.73L151.58-0.73Q148.98-2.44 148.98-4.47L148.98-4.47L148.98-4.47Q148.98-6.50 150.46-7.70L150.46-7.70L150.46-7.70Q151.94-8.89 154.13-8.89L154.13-8.89L154.13-8.89Q156.31-8.89 157.66-8.06L157.66-8.06L157.66-8.06Q156.99-6.34 156.99-5.20L156.99-5.20L156.99-5.20Q156.99-1.77 159.90-1.77L159.90-1.77L159.90-1.77Q161.15-1.77 161.98-2.55L161.98-2.55L161.98-2.55Q162.81-3.33 162.81-4.68L162.81-4.68L162.81-4.68Q162.81-7.33 158.34-10.14L158.34-10.14L158.34-10.14Q154.70-12.53 153.87-13.47L153.87-13.47L153.87-13.47Q152.46-15.13 152.46-17.21L152.46-17.21L152.46-17.21Q152.46-19.29 153.45-21.27L153.45-21.27L153.45-21.27Q154.44-23.24 156.26-24.65L156.26-24.65L156.26-24.65Q160.06-27.56 166.66-27.56L166.66-27.56L166.66-27.56Q170.04-27.56 172.04-26.21L172.04-26.21L172.04-26.21Q174.04-24.86 174.04-22.57L174.04-22.57L174.04-22.57Q174.04-20.28 172.67-18.98L172.67-18.98L172.67-18.98Q171.29-17.68 168.79-17.68L168.79-17.68L168.79-17.68Q167.08-17.68 166.24-18.25Z" fill="url(#editing-outline-gradient)"></path></g></g><style>text {
  font-size: 64px;
  font-family: Arial Black;
  dominant-baseline: central;
  text-anchor: middle;
}</style></svg>